<svg width="68" height="19" viewBox="0 0 68 19" fill="none" xmlns="http://www.w3.org/2000/svg">
<path d="M9.992 18L3.536 10.536V18H0.8V1.32H3.536V8.928L10.016 1.32H13.448L6.2 9.672L13.568 18H9.992ZM18.7235 6.696C19.1235 6.024 19.6515 5.504 20.3075 5.136C20.9795 4.752 21.7715 4.56 22.6835 4.56V7.392H21.9875C20.9155 7.392 20.0995 7.664 19.5395 8.208C18.9955 8.752 18.7235 9.696 18.7235 11.04V18H15.9875V4.776H18.7235V6.696ZM37.3184 11.064C37.3184 11.56 37.2864 12.008 37.2224 12.408H27.1184C27.1984 13.464 27.5904 14.312 28.2944 14.952C28.9984 15.592 29.8624 15.912 30.8864 15.912C32.3584 15.912 33.3984 15.296 34.0064 14.064H36.9584C36.5584 15.28 35.8304 16.28 34.7744 17.064C33.7344 17.832 32.4384 18.216 30.8864 18.216C29.6224 18.216 28.4864 17.936 27.4784 17.376C26.4864 16.8 25.7024 16 25.1264 14.976C24.5664 13.936 24.2864 12.736 24.2864 11.376C24.2864 10.016 24.5584 8.824 25.1024 7.8C25.6624 6.76 26.4384 5.96 27.4304 5.4C28.4384 4.84 29.5904 4.56 30.8864 4.56C32.1344 4.56 33.2464 4.832 34.2224 5.376C35.1984 5.92 35.9584 6.688 36.5024 7.68C37.0464 8.656 37.3184 9.784 37.3184 11.064ZM34.4624 10.2C34.4464 9.192 34.0864 8.384 33.3824 7.776C32.6784 7.168 31.8064 6.864 30.7664 6.864C29.8224 6.864 29.0144 7.168 28.3424 7.776C27.6704 8.368 27.2704 9.176 27.1424 10.2H34.4624ZM52.1309 11.064C52.1309 11.56 52.0989 12.008 52.0349 12.408H41.9309C42.0109 13.464 42.4029 14.312 43.1069 14.952C43.8109 15.592 44.6749 15.912 45.6989 15.912C47.1709 15.912 48.2109 15.296 48.8189 14.064H51.7709C51.3709 15.28 50.6429 16.28 49.5869 17.064C48.5469 17.832 47.2509 18.216 45.6989 18.216C44.4349 18.216 43.2989 17.936 42.2909 17.376C41.2989 16.8 40.5149 16 39.9389 14.976C39.3789 13.936 39.0989 12.736 39.0989 11.376C39.0989 10.016 39.3709 8.824 39.9149 7.8C40.4749 6.76 41.2509 5.96 42.2429 5.4C43.2509 4.84 44.4029 4.56 45.6989 4.56C46.9469 4.56 48.0589 4.832 49.0349 5.376C50.0109 5.92 50.7709 6.688 51.3149 7.68C51.8589 8.656 52.1309 9.784 52.1309 11.064ZM49.2749 10.2C49.2589 9.192 48.8989 8.384 48.1949 7.776C47.4909 7.168 46.6189 6.864 45.5789 6.864C44.6349 6.864 43.8269 7.168 43.1549 7.776C42.4829 8.368 42.0829 9.176 41.9549 10.2H49.2749ZM53.9114 11.328C53.9114 10 54.1834 8.824 54.7274 7.8C55.2874 6.776 56.0394 5.984 56.9834 5.424C57.9434 4.848 59.0074 4.56 60.1754 4.56C61.0394 4.56 61.8874 4.752 62.7194 5.136C63.5674 5.504 64.2394 6 64.7354 6.624V0.24H67.4954V18H64.7354V16.008C64.2874 16.648 63.6634 17.176 62.8634 17.592C62.0794 18.008 61.1754 18.216 60.1514 18.216C58.9994 18.216 57.9434 17.928 56.9834 17.352C56.0394 16.76 55.2874 15.944 54.7274 14.904C54.1834 13.848 53.9114 12.656 53.9114 11.328ZM64.7354 11.376C64.7354 10.464 64.5434 9.672 64.1594 9C63.7914 8.328 63.3034 7.816 62.6954 7.464C62.0874 7.112 61.4314 6.936 60.7274 6.936C60.0234 6.936 59.3674 7.112 58.7594 7.464C58.1514 7.8 57.6554 8.304 57.2714 8.976C56.9034 9.632 56.7194 10.416 56.7194 11.328C56.7194 12.24 56.9034 13.04 57.2714 13.728C57.6554 14.416 58.1514 14.944 58.7594 15.312C59.3834 15.664 60.0394 15.84 60.7274 15.84C61.4314 15.84 62.0874 15.664 62.6954 15.312C63.3034 14.96 63.7914 14.448 64.1594 13.776C64.5434 13.088 64.7354 12.288 64.7354 11.376Z" fill="#EEE9DB"/>
</svg>
